<mxfile host="app.diagrams.net" modified="2021-12-10T05:06:18.088Z" agent="5.0 (X11)" etag="e1tfCVUq8q5-GonXkYYz" version="15.9.4" type="github">
  <diagram id="dZjqcPs-gwaTEHIOecjV" name="Page-1">
    <mxGraphModel dx="1041" dy="437" grid="1" gridSize="10" guides="1" tooltips="1" connect="1" arrows="1" fold="1" page="1" pageScale="1" pageWidth="850" pageHeight="1100" math="0" shadow="0">
      <root>
        <mxCell id="0" />
        <mxCell id="1" parent="0" />
        <mxCell id="6ge-q-GDThWXUt3xkh55-1" value="" style="shape=image;html=1;verticalAlign=top;verticalLabelPosition=bottom;labelBackgroundColor=#ffffff;imageAspect=0;aspect=fixed;image=https://cdn4.iconfinder.com/data/icons/ionicons/512/icon-ios7-circle-filled-128.png" vertex="1" parent="1">
          <mxGeometry x="360" y="60" width="70" height="70" as="geometry" />
        </mxCell>
        <mxCell id="6ge-q-GDThWXUt3xkh55-2" value="" style="rounded=0;whiteSpace=wrap;html=1;" vertex="1" parent="1">
          <mxGeometry x="335" y="160" width="120" height="60" as="geometry" />
        </mxCell>
        <mxCell id="6ge-q-GDThWXUt3xkh55-3" value="" style="endArrow=classic;html=1;rounded=0;entryX=0.5;entryY=0;entryDx=0;entryDy=0;exitX=0.5;exitY=1;exitDx=0;exitDy=0;" edge="1" parent="1" source="6ge-q-GDThWXUt3xkh55-1" target="6ge-q-GDThWXUt3xkh55-2">
          <mxGeometry width="50" height="50" relative="1" as="geometry">
            <mxPoint x="470" y="120" as="sourcePoint" />
            <mxPoint x="520" y="70" as="targetPoint" />
            <Array as="points">
              <mxPoint x="395" y="120" />
              <mxPoint x="395" y="130" />
            </Array>
          </mxGeometry>
        </mxCell>
      </root>
    </mxGraphModel>
  </diagram>
</mxfile>
